<svg xmlns="http://www.w3.org/2000/svg" width="25" height="25" fill="none" viewBox="0 0 25 25"><g clip-path="url(#a)"><path fill="#fff" d="M11.743.28c-.053.005-.22.022-.372.034C7.885.628 4.62 2.509 2.551 5.4a12.15 12.15 0 0 0-2.167 5.362c-.099.675-.11.874-.11 1.788s.011 1.113.11 1.787c.667 4.609 3.947 8.481 8.396 9.916.796.257 1.636.432 2.591.538.372.04 1.98.04 2.352 0 1.648-.183 3.045-.59 4.422-1.294.211-.108.252-.136.223-.16-.019-.015-.919-1.222-1.998-2.68l-1.963-2.651-2.46-3.64a349 349 0 0 0-2.476-3.637c-.01-.003-.02 1.614-.024 3.589-.007 3.457-.01 3.596-.053 3.678a.44.44 0 0 1-.211.218c-.077.039-.144.046-.506.046h-.415l-.11-.07a.45.45 0 0 1-.162-.175l-.05-.108.005-4.81.007-4.813.074-.094a.7.7 0 0 1 .178-.146c.098-.048.137-.053.552-.053.49 0 .57.02.698.159.036.038 1.368 2.044 2.961 4.46l4.842 7.334 1.944 2.944.098-.065a12.6 12.6 0 0 0 2.522-2.212 12.2 12.2 0 0 0 2.89-6.274c.098-.674.11-.873.11-1.787s-.012-1.114-.11-1.788c-.668-4.608-3.948-8.48-8.397-9.916a13 13 0 0 0-2.555-.535c-.23-.024-1.817-.05-2.016-.03m5.025 7.423a.48.48 0 0 1 .242.284c.02.062.024 1.396.02 4.402l-.008 4.314-.76-1.166-.763-1.166v-3.136c0-2.027.01-3.167.024-3.222a.5.5 0 0 1 .237-.302c.098-.05.135-.056.511-.056.355 0 .418.005.497.048"/></g><defs><clipPath id="a"><path fill="#fff" d="M.273.274H24.82V24.82H.273z"/></clipPath></defs></svg>