<svg xmlns="http://www.w3.org/2000/svg" viewBox="0 0 157.7 157.7"><path fill="#fbbc04" d="M33.2 132.6 9.5 156.3c-1.8 1.8-4.8 1.8-6.6 0l-1.5-1.5c-1.8-1.8-1.8-4.8 0-6.6l23.7-23.7c1.8-1.8 4.8-1.8 6.6 0l1.5 1.5c1.8 1.8 1.8 4.8 0 6.6"/><path fill="#4285f4" d="M96.9 142.5h30.4c16.8 0 30.4-13.6 30.4-30.4V30.4c0-16.8-13.6-30.4-30.4-30.4S96.9 13.6 96.9 30.4z"/><path fill="#fbbc04" d="M46.6 142.5c16.8 0 30.4-13.6 30.4-30.4S63.4 81.7 46.6 81.7s-30.4 13.6-30.4 30.4 13.6 30.4 30.4 30.4"/><path fill="#34a853" d="M118.1 142.5H88.5c-16.8 0-30.4-13.6-30.4-30.4V72.3c0-16.8 13.6-30.4 30.4-30.4s30.4 13.6 30.4 30.4v69.4c0 .4-.3.8-.8.8"/><path fill="#1967d2" d="M118.9 141.7V72.3c0-13.5-9-25.5-22-29.2v99.4h21.2c.4 0 .8-.3.8-.8"/><path fill="#ea4335" d="M77 112.7c0-12.3-7.4-23.4-18.9-28.1v28.1c0 8.7 3.6 16.5 9.4 22 6-5.7 9.4-13.7 9.4-22Z"/></svg>