<svg xmlns="http://www.w3.org/2000/svg" width="27" height="16" fill="none" viewBox="0 0 27 16"><path fill="#38bdf8" fill-rule="evenodd" d="M13.516.251Q8.384.251 7.1 5.418q1.926-2.584 4.492-1.938c.976.246 1.675.958 2.447 1.748C15.296 6.513 16.752 8 19.932 8q5.133 0 6.417-5.166-1.924 2.584-4.492 1.937c-.976-.245-1.674-.958-2.447-1.747C18.154 1.738 16.698.251 13.517.251M7.1 8Q1.967 8 .683 13.166q1.925-2.583 4.491-1.937c.977.245 1.675.958 2.447 1.747 1.258 1.285 2.714 2.773 5.895 2.773q5.134 0 6.417-5.166-1.924 2.583-4.492 1.938c-.976-.247-1.674-.96-2.446-1.748C11.737 9.488 10.28 8 7.099 8" clip-rule="evenodd"/></svg>